<svg width="33" height="33" viewBox="0 0 33 33" fill="none" xmlns="http://www.w3.org/2000/svg">
<path fill-rule="evenodd" clip-rule="evenodd" d="M22.5512 12.6691C22.5512 14.1668 21.9562 15.6031 20.8972 16.6622C19.8382 17.7212 18.4018 18.3162 16.9041 18.3162C15.4064 18.3162 13.9701 17.7212 12.9111 16.6622C11.852 15.6031 11.2571 14.1668 11.2571 12.6691C11.2571 11.1714 11.852 9.73505 12.9111 8.67602C13.9701 7.61699 15.4064 7.02203 16.9041 7.02203C18.4018 7.02203 19.8382 7.61699 20.8972 8.67602C21.9562 9.73505 22.5512 11.1714 22.5512 12.6691ZM19.7277 12.6691C19.7277 13.4179 19.4302 14.1361 18.9007 14.6656C18.3712 15.1951 17.653 15.4926 16.9041 15.4926C16.1553 15.4926 15.4371 15.1951 14.9076 14.6656C14.3781 14.1361 14.0806 13.4179 14.0806 12.6691C14.0806 11.9202 14.3781 11.2021 14.9076 10.6726C15.4371 10.143 16.1553 9.84556 16.9041 9.84556C17.653 9.84556 18.3712 10.143 18.9007 10.6726C19.4302 11.2021 19.7277 11.9202 19.7277 12.6691Z" fill="#B84E12"/>
<path fill-rule="evenodd" clip-rule="evenodd" d="M16.9044 1.375C8.32794 1.375 1.375 8.32794 1.375 16.9044C1.375 25.4809 8.32794 32.4338 16.9044 32.4338C25.4809 32.4338 32.4338 25.4809 32.4338 16.9044C32.4338 8.32794 25.4809 1.375 16.9044 1.375ZM4.19853 16.9044C4.19853 19.855 5.20512 22.5712 6.89218 24.7284C8.07697 23.1725 9.60545 21.9116 11.3582 21.0441C13.111 20.1767 15.0405 19.7262 16.9962 19.7279C18.9265 19.7261 20.8318 20.1649 22.5669 21.0109C24.302 21.8569 25.8211 23.0878 27.0084 24.6098C28.2316 23.0055 29.0552 21.133 29.4111 19.1471C29.7669 17.1613 29.6448 15.1193 29.0548 13.19C28.4647 11.2608 27.4238 9.49977 26.018 8.0527C24.6123 6.60563 22.8822 5.5141 20.9708 4.86842C19.0595 4.22275 17.0219 4.0415 15.0266 4.33967C13.0313 4.63783 11.1356 5.40685 9.49656 6.58308C7.85747 7.7593 6.52203 9.30893 5.60074 11.1037C4.67944 12.8986 4.19878 14.887 4.19853 16.9044ZM16.9044 29.6103C13.9876 29.6147 11.1589 28.6113 8.89688 26.7698C9.80737 25.4664 11.0192 24.4022 12.4294 23.6677C13.8395 22.9333 15.4062 22.5503 16.9962 22.5515C18.5663 22.5502 20.114 22.9236 21.5109 23.6405C22.9078 24.3575 24.1134 25.3974 25.0277 26.6738C22.7481 28.575 19.8728 29.6145 16.9044 29.6103Z" fill="#B84E12"/>
</svg>
