<svg width="128" height="35" viewBox="0 0 128 35" fill="none" xmlns="http://www.w3.org/2000/svg">
<path d="M50.32 14.832C49.826 14.832 49.046 14.91 48.656 15.092C48.968 14.156 49.176 12.622 49.176 11.764H56.976V8.28H45.458C45.458 12.726 44.938 15.976 43.664 19.2H47.694C47.798 18.966 47.876 18.706 47.928 18.524C48.422 18.29 49.072 18.056 50.32 18.056C52.4 18.056 53.284 18.992 53.284 20.916C53.284 23.048 52.166 23.854 50.06 23.854C48.37 23.854 47.226 23.36 47.018 22.086H42.91C43.326 25.44 46.446 27.338 50.06 27.338C54.064 27.338 57.574 24.868 57.574 20.916C57.574 17.12 54.636 14.832 50.32 14.832ZM69.1064 23.75C65.8564 23.75 64.1924 21.8 64.1924 17.614C64.1924 13.376 65.7004 11.53 69.1064 11.53C72.2264 11.53 72.9284 12.752 73.3964 14.52H77.6344C76.7504 11.192 74.6444 7.942 69.1064 7.942C63.6464 7.942 59.8244 11.842 59.8244 17.614C59.8244 23.256 63.5944 27.338 69.1064 27.338C74.6184 27.338 77.1144 23.854 77.7644 20.422H73.5004C73.1364 22.398 72.2784 23.75 69.1064 23.75ZM92.3141 8.28V19.772C92.3141 22.632 91.4821 23.75 88.4401 23.75C85.4241 23.75 84.5921 22.632 84.5921 19.772V8.28H80.3541V19.486C80.3541 23.75 82.7461 27.338 88.4401 27.338C94.1601 27.338 96.5521 23.75 96.5521 19.486V8.28H92.3141ZM104.298 23.334V8.28H100.06V27H112.28V23.334H104.298ZM111.204 8.28V11.946H117.132V27H121.37V11.946H127.298V8.28H111.204Z" fill="#B84E12"/>
<g clip-path="url(#clip0_1001_1017)">
<path d="M22.336 6.96547L16.512 15.3732L16.0266 15.8638L15.5386 15.3732L9.7173 6.96547C9.21785 6.26234 9.00971 5.38987 9.13723 4.53391C9.26474 3.67794 9.71782 2.90612 10.4 2.38286L10.4453 2.34782C10.9629 1.99338 11.557 1.7695 12.1777 1.69493C12.7985 1.62035 13.428 1.69726 14.0133 1.91921C14.7423 2.19366 15.4222 2.58605 16.0266 3.08104C16.631 2.58605 17.311 2.19366 18.04 1.91921C18.6241 1.69819 19.2521 1.62176 19.8715 1.69633C20.4908 1.7709 21.0835 1.99429 21.6 2.34782L21.6426 2.37747C22.328 2.89927 22.7842 3.67137 22.9137 4.52872C23.0433 5.38607 22.8359 6.26064 22.336 6.96547Z" fill="#B84E12"/>
<path d="M8.63196 7.53426L14.744 15.729L15.056 16.349L14.4426 16.6644L4.73329 19.6647C3.91726 19.9269 3.03221 19.8566 2.26664 19.4689C1.50108 19.0812 0.915501 18.4067 0.634627 17.589L0.618627 17.5378C0.444717 16.9312 0.417155 16.2914 0.538252 15.6718C0.659348 15.0522 0.925576 14.471 1.31463 13.9769C1.79657 13.3605 2.37485 12.8278 3.02663 12.3999C2.74921 11.6648 2.59073 10.8893 2.55729 10.1032C2.53103 9.4723 2.6543 8.84417 2.91684 8.27117C3.17939 7.69818 3.5736 7.1969 4.06663 6.80913L4.10929 6.77678C4.81213 6.28234 5.67816 6.08483 6.52292 6.22632C7.36769 6.3678 8.12443 6.8371 8.63196 7.53426Z" fill="#B84E12"/>
<path d="M5.26401 20.7942L14.864 17.4516L15.544 17.341L15.6533 18.0284L15.4667 28.2908C15.4606 29.1565 15.1206 29.9857 14.519 30.6019C13.9174 31.2181 13.1016 31.5727 12.2453 31.5903H12.1947C11.5713 31.5689 10.962 31.397 10.4178 31.0889C9.87364 30.7808 9.41034 30.3454 9.06668 29.8192C8.63355 29.1666 8.31008 28.4462 8.10935 27.6869C7.33197 27.7238 6.55384 27.6328 5.80535 27.4174C5.20337 27.2477 4.6502 26.9351 4.19192 26.5056C3.73364 26.0761 3.38351 25.5421 3.17068 24.9482L3.15201 24.8969C2.90741 24.0697 2.99112 23.1787 3.38538 22.4128C3.77964 21.6469 4.45347 21.0664 5.26401 20.7942Z" fill="#B84E12"/>
<path d="M16.5759 28.2962L16.3972 18.0338L16.5039 17.3464L17.1839 17.457L26.7839 20.7996C27.5968 21.0717 28.2723 21.6541 28.6664 22.4226C29.0604 23.1911 29.1418 24.0848 28.8932 24.9131L28.8745 24.9643C28.6622 25.5579 28.3125 26.0914 27.8546 26.5205C27.3968 26.9496 26.844 27.2617 26.2425 27.4309C25.4943 27.6473 24.716 27.7384 23.9385 27.7004C23.7361 28.4594 23.4137 29.1803 22.9839 29.8354C22.6387 30.3617 22.1739 30.7969 21.6283 31.1045C21.0827 31.4121 20.4723 31.5833 19.8479 31.6037H19.7946C18.9371 31.5862 18.1205 31.2304 17.5191 30.6123C16.9177 29.9943 16.5792 29.1631 16.5759 28.2962Z" fill="#B84E12"/>
<path d="M27.3254 19.6782L17.6134 16.6779L17.0027 16.3652L17.3147 15.7452L23.4267 7.55043C23.9344 6.85025 24.6932 6.37889 25.5406 6.23731C26.3879 6.09573 27.2564 6.29518 27.96 6.79295L28 6.8253C28.4935 7.21263 28.8881 7.71382 29.1507 8.28692C29.4133 8.86003 29.5363 9.48838 29.5094 10.1194C29.4772 10.9056 29.3187 11.6813 29.04 12.4161C29.6926 12.844 30.2718 13.3766 30.7547 13.993C31.1435 14.4873 31.4093 15.0686 31.53 15.6882C31.6506 16.3078 31.6225 16.9476 31.448 17.554V17.6052C31.1667 18.428 30.5771 19.1062 29.806 19.4939C29.035 19.8816 28.1442 19.9478 27.3254 19.6782Z" fill="#B84E12"/>
<path d="M16.0267 19.0609C17.3699 19.0609 18.4587 17.9602 18.4587 16.6024C18.4587 15.2447 17.3699 14.144 16.0267 14.144C14.6836 14.144 13.5947 15.2447 13.5947 16.6024C13.5947 17.9602 14.6836 19.0609 16.0267 19.0609Z" fill="#B84E12"/>
</g>
<defs>
<clipPath id="clip0_1001_1017">
<rect width="32" height="31" fill="white" transform="translate(0 1)"/>
</clipPath>
</defs>
</svg>
